<?xml version="1.0" encoding="utf-8"?>
<!-- Generator: Adobe Illustrator 19.1.0, SVG Export Plug-In . SVG Version: 6.00 Build 0)  -->
<svg version="1.1" id="Layer_1" xmlns="http://www.w3.org/2000/svg" xmlns:xlink="http://www.w3.org/1999/xlink" x="0px" y="0px"
	 viewBox="-510 1030 179.8 74" style="enable-background:new -510 1030 179.8 74;" xml:space="preserve">
<style type="text/css">
	.st0{fill:#22386B;}
	.st1{fill:#FFFFFF;}
	.st2{fill:#999999;}
	.st3{fill:none;}
	.st4{fill:#777777;}
	.st5{fill:none;stroke:#22386B;stroke-width:1.25;stroke-miterlimit:10;}
</style>
<g>
	<g>
		<path class="st0" d="M-453,1040.5c0,0,0-0.3-0.2-0.4c-4.7-2.1-14.6-3.9-24.5-3.9c-9.9,0-19.9,1.8-24.6,3.8
			c-0.3,0.2-0.2,0.4-0.2,0.4s-0.2,20.6-0.2,24.6c0,6.9,3.1,13.4,7.2,18.6c6.3,7.8,14.9,12.7,17.7,12.7c2.8,0,11.4-4.9,17.7-12.7
			c4.2-5.2,7.2-11.7,7.2-18.6C-452.8,1061-453,1040.5-453,1040.5z"/>
		<g>
			<path class="st1" d="M-456.4,1047.3c-0.9-1.3-1.9-2.2-2.4-2.6h-0.1v-0.1c0.2-0.4,0.4-1,0.4-1.4c0-0.9-0.3-1.6-1-2.2
				c-0.8-0.8-1.7-1-2.5-1c-0.5,0-1.5,0.2-2,0.7h-0.1l-0.2-0.2c-1-0.8-2.5-0.7-2.5-0.7c-1.7,0.1-3.3,1.4-3.2,3.1c0,0.8,0.3,1.5,1,2.3
				c0.4,0.4,1.2,0.7,1.2,0.7v0.1c0,0.1,0,0,0,0.2c0,0.2,0,0.6,0,0.9c0,1,0.2,1.9,0.6,2.8c0.6,1.1,1.2,1.7,2.8,2.8v0.2
				c-0.2,0.3-0.2,0.7-0.1,0.9c0,0.2,0.2,0.9,0.3,1.2l0,0c0,0-0.3,0.8-0.4,0.9c0,0,0,0,0,0.1c-0.1,0.2-0.2,0.4-0.3,0.5
				c-0.1,0.2-0.2,0.3-0.5,0.3h-0.2c-0.2-0.1-0.4-0.1-0.6-0.1l0,0c-0.2,0-0.3,0-0.4,0.2c0,0.1-0.1,0.2-0.1,0.3c0,0,0,0,0,0.1l0,0l0,0
				c0,0.1,0,0.2,0.1,0.2c0.1,0.1,0.2,0.2,0.3,0.2c0.2,0,0.3,0,0.5,0c0.5,0,1.1-0.1,1.4-0.2h0.2l0,0c0.2,0,0.3,0,0.4,0
				c0,0,0.1,0,0.2,0l0,0l0,0l0,0l0,0l0,0l0,0l0,0h0.2c0.5,0.1,1.3,0.2,2,0.2c0.5,0,0.9,0,1.2,0c0.2,0,0.6-0.1,0.5-0.6
				c0,0,0-0.6-1-0.4h-0.2c0,0-0.2,0-0.1-0.1c0-0.2,0.5-0.6,0.7-0.8l0,0c0.2-0.2,0.5-0.6,0.8-0.9c0.1-0.2,0.2-0.2,0.3-0.3l0.1-0.2
				l0.1,0.2c0.4,0.4,0.7,0.8,1,1.1c0.3,0.3,0.5,0.5,0.7,0.6c0.2,0.2,0.4,0.2,0.5,0.2h0.1l0,0l0,0h0.2l0,0c0.2,0,0.2,0,0.3-0.2
				c0.2-0.2,0.2-0.3,0.3-0.6c0-0.2,0-0.5,0.1-0.8v-0.2h0.2l0,0c0,0,0,0,0.1,0h0.1l0,0l0.2,0.1c0,0,0.1,0,0.2,0s0.1-0.1,0.2-0.2
				s0.1-0.2,0.1-0.4c0-0.2,0-0.4,0-0.8c0,0,0-0.1,0-0.2C-454.5,1051.1-455.2,1049.1-456.4,1047.3z M-462.2,1054.6h0.2v0.2
				c0.1,0.2,0.2,0.4,0.2,0.4l0,0l0,0c0,0.1-0.2,0.3-0.3,0.5c-0.1,0.2-0.2,0.3-0.2,0.4c0,0,0,0.1-0.1,0.2l0,0l0,0l0,0l0,0l0,0l0,0
				h-0.2h-0.2l0,0h-0.1v-0.1c0-0.6,0.3-1,0.3-1l0,0l0,0c0.1,0,0.2-0.2,0.2-0.2C-462.5,1054.8-462.4,1054.8-462.2,1054.6z"/>
		</g>
		<g>
			<path class="st1" d="M-487.5,1047.3c-0.9-1.3-1.9-2.2-2.4-2.6h-0.1v-0.1c0.2-0.4,0.4-1,0.4-1.4c0-0.9-0.3-1.6-1-2.2
				c-0.8-0.8-1.7-1-2.5-1c-0.5,0-1.5,0.2-2,0.7h-0.1h-0.1c-1-0.8-2.5-0.7-2.5-0.7c-1.7,0.1-3.3,1.4-3.2,3.1c0,0.8,0.3,1.5,1,2.3
				c0.4,0.4,1.2,0.7,1.2,0.7v0.1c0,0.1,0,0,0,0.2c0,0.2,0,0.6,0,0.9c0,1,0.2,1.9,0.6,2.8c0.6,1.1,1.2,1.7,2.8,2.8v0.2
				c-0.2,0.3-0.2,0.7-0.1,0.9c0,0.2,0.2,0.9,0.3,1.2l0,0c0,0-0.3,0.8-0.4,0.9c0,0,0,0,0,0.1c-0.1,0.2-0.2,0.4-0.3,0.5
				c-0.1,0.2-0.2,0.3-0.5,0.3h-0.2c-0.2-0.1-0.4-0.1-0.6-0.1l0,0c-0.2,0-0.3,0-0.4,0.2c0,0.1-0.1,0.2-0.1,0.3c0,0,0,0,0,0.1l0,0l0,0
				c0,0.1,0,0.2,0.1,0.2c0.1,0.1,0.2,0.2,0.3,0.2c0.2,0,0.3,0,0.5,0c0.5,0,1.1-0.1,1.4-0.2h0.2l0,0c0.2,0,0.3,0,0.4,0
				c0,0,0.1,0,0.2,0l0,0l0,0l0,0l0,0l0,0l0,0l0,0h0.2c0.5,0.1,1.3,0.2,2,0.2c0.5,0,0.9,0,1.2,0c0.2,0,0.6-0.1,0.5-0.6
				c0,0,0-0.6-1-0.4h-0.2c0,0-0.2,0-0.1-0.1c0-0.2,0.5-0.6,0.7-0.8l0,0c0.2-0.2,0.5-0.6,0.8-0.9c0.1-0.2,0.2-0.2,0.3-0.3l0.1-0.2
				l0.1,0.2c0.4,0.4,0.7,0.8,1,1.1c0.3,0.3,0.5,0.5,0.7,0.6c0.2,0.2,0.4,0.2,0.5,0.2h0.1h0.1l0,0h0.2l0,0c0.2,0,0.2,0,0.3-0.2
				c0.2-0.2,0.2-0.3,0.3-0.6c0-0.2,0-0.5,0.1-0.8v-0.2h0.2l0,0c0,0,0,0,0.1,0h0.1l0,0l0.2,0.1c0,0,0.1,0,0.2,0
				c0.1,0,0.1-0.1,0.2-0.2c0-0.1,0.1-0.2,0.1-0.4c0-0.2,0-0.4,0-0.8c0,0,0-0.1,0-0.2C-485.5,1051.1-486.2,1049.1-487.5,1047.3z
				 M-493.1,1054.6h0.2v0.2c0.1,0.2,0.2,0.4,0.2,0.4l0,0l0,0c0,0.1-0.2,0.3-0.3,0.5c-0.1,0.2-0.2,0.3-0.2,0.4c0,0,0,0.1-0.1,0.2l0,0
				l0,0l0,0l0,0l0,0l0,0h-0.2h-0.2l0,0h-0.1v-0.1c0-0.6,0.3-1,0.3-1l0,0l0,0c0.1,0,0.2-0.2,0.2-0.2
				C-493.5,1054.8-493.4,1054.8-493.1,1054.6z"/>
		</g>
		<g>
			<path class="st1" d="M-470.5,1081.8c-0.9-1.3-1.9-2.2-2.4-2.6h-0.1v-0.1c0.2-0.4,0.4-1,0.4-1.4c0-0.9-0.3-1.6-1-2.2
				c-0.8-0.8-1.7-1-2.5-1c-0.5,0-1.5,0.2-2,0.7h-0.1h-0.1c-1-0.8-2.5-0.7-2.5-0.7c-1.7,0.1-3.3,1.4-3.2,3.1c0,0.8,0.3,1.5,1,2.3
				c0.4,0.4,1.2,0.7,1.2,0.7v0.1c0,0.1,0,0,0,0.2c0,0.2,0,0.6,0,0.9c0,1,0.2,1.9,0.6,2.8c0.6,1.1,1.2,1.7,2.8,2.8v0.2
				c-0.2,0.3-0.2,0.7-0.1,0.9c0,0.2,0.2,0.9,0.3,1.2l0,0c0,0-0.3,0.8-0.4,0.9c0,0,0,0,0,0.1c-0.1,0.2-0.2,0.4-0.3,0.5
				c-0.1,0.2-0.2,0.3-0.5,0.3h-0.2c-0.2-0.1-0.4-0.1-0.6-0.1l0,0c-0.2,0-0.3,0-0.4,0.2c0,0.1-0.1,0.2-0.1,0.3c0,0,0,0,0,0.1l0,0l0,0
				c0,0.1,0,0.2,0.1,0.2c0.1,0.1,0.2,0.2,0.3,0.2c0.2,0,0.3,0,0.5,0c0.5,0,1.1-0.1,1.4-0.2h0.2l0,0c0.2,0,0.3,0,0.4,0
				c0,0,0.1,0,0.2,0l0,0l0,0l0,0l0,0l0,0l0,0l0,0h0.2c0.5,0.1,1.3,0.2,2,0.2c0.5,0,0.9,0,1.2,0c0.2,0,0.6-0.1,0.5-0.6
				c0,0,0-0.6-1-0.4h-0.2c0,0-0.2,0-0.1-0.1c0-0.2,0.5-0.6,0.7-0.8l0,0c0.2-0.2,0.5-0.6,0.8-0.9c0.1-0.2,0.2-0.2,0.3-0.3l0.1-0.2
				l0.1,0.2c0.4,0.4,0.7,0.8,1,1.1c0.3,0.3,0.5,0.5,0.7,0.6c0.2,0.2,0.4,0.2,0.5,0.2h0.1l0,0l0,0h0.2l0,0c0.2,0,0.2,0,0.3-0.2
				c0.2-0.2,0.2-0.3,0.3-0.6c0-0.2,0-0.5,0.1-0.8v-0.2h0.2l0,0c0,0,0,0,0.1,0h0.1l0,0l0.2,0.1c0,0,0.1,0,0.2,0
				c0.1,0,0.1-0.1,0.2-0.2c0-0.1,0.1-0.2,0.1-0.4c0-0.2,0-0.4,0-0.8c0,0,0-0.1,0-0.2C-468.5,1085.7-469.2,1083.7-470.5,1081.8z
				 M-476.2,1089.3h0.2v0.2c0.1,0.2,0.2,0.4,0.2,0.4l0,0l0,0c0,0.1-0.2,0.3-0.3,0.5c-0.1,0.2-0.2,0.3-0.2,0.4c0,0,0,0.1-0.1,0.2l0,0
				l0,0l0,0l0,0l0,0l0,0h-0.2h-0.2h-0.1h-0.1v-0.1c0-0.6,0.3-1,0.3-1l0,0l0,0c0.1,0,0.2-0.2,0.2-0.2
				C-476.5,1089.5-476.4,1089.4-476.2,1089.3z"/>
		</g>
		<path class="st1" d="M-477.8,1060.3c0,0-13.5,13.2-20.3,19.9c0.8,1.2,1.6,2.3,2.4,3.3c0.4,0.5,0.8,1,1.2,1.4l16.3-15.9
			c0,0,0.2-0.2,0.3-0.2c0.2,0,0.3,0.2,0.3,0.2l16.3,16c0.4-0.5,0.9-1,1.3-1.5c0.9-1,1.6-2.1,2.4-3.3
			C-464.8,1073.2-477.8,1060.3-477.8,1060.3z"/>
		<path class="st1" d="M-453.8,1071.5c-7.9-7.8-24-23.6-24-23.6s-16.5,16.1-24.1,23.7c0.6,2.1,1.3,4,2.3,5.9l21.5-21.2
			c0,0,0.2-0.2,0.3-0.2c0.2,0,0.3,0.2,0.3,0.2l21.5,21.2C-455,1075.6-454.2,1073.5-453.8,1071.5z"/>
		<path class="st2" d="M-456.4,1047.2c-0.9-1.3-1.9-2.2-2.4-2.7h-0.1v-0.1c0.2-0.4,0.4-1,0.4-1.5c0-0.9-0.3-1.6-1-2.2
			c-0.8-0.8-1.7-1-2.6-1c-0.5,0-1.6,0.2-2.1,0.7h-0.1l0,0c-1-0.8-2.6-0.7-2.6-0.7c-1.7,0.1-3.3,1.4-3.2,3.2c0,0.8,0.3,1.5,1,2.3
			c0.4,0.4,1.2,0.8,1.2,0.8v0.1c0,0.1,0,0,0,0.2c0,0.2,0,0.6,0,0.9c0,1,0.2,2,0.6,2.8c0.6,1.1,1.2,1.7,2.8,2.9v0.2
			c-0.2,0.3-0.2,0.7-0.1,0.9c0,0.2,0.2,0.9,0.3,1.2l0,0c0,0-0.3,0.8-0.4,0.9c0,0,0,0,0,0.1c-0.1,0.2-0.2,0.4-0.3,0.6
			c0.1,0.1-0.1,0.2-0.3,0.2h-0.2c-0.2-0.1-0.4-0.1-0.6-0.1l0,0c-0.2,0-0.3,0-0.4,0.2c0,0.1-0.1,0.2-0.1,0.3c0,0,0,0,0,0.1l0,0l0,0
			c0,0.1,0,0.2,0.1,0.2c0.1,0.1,0.2,0.2,0.3,0.2c0.2,0,0.3,0,0.5,0c0.5,0,1.1-0.1,1.4-0.2h0.2l0,0c0.2,0,0.3,0,0.4,0
			c0,0,0.1,0,0.2,0l0,0l0,0l0,0l0,0l0,0l0,0l0,0h0.2c0.5,0.1,1.3,0.2,2.1,0.2c0.5,0,0.9,0,1.2,0c0.2,0,0.6-0.1,0.5-0.6
			c0,0,0-0.6-1-0.4h-0.2c0,0-0.2,0-0.1-0.1c0-0.2,0.5-0.6,0.7-0.9l0,0c0.2-0.2,0.5-0.6,0.8-0.9c0.1-0.2,0.2-0.2,0.3-0.3l0.1-0.2
			l0.1,0.2c0.4,0.5,0.7,0.8,1,1.1c0.3,0.3,0.5,0.5,0.7,0.6c0.2,0.2,0.4,0.2,0.5,0.2h0.1l0,0l0,0h0.2l0,0c0.2,0,0.2,0,0.3-0.2
			c0.2,0,0.3-0.2,0.3-0.4s0-0.5,0.1-0.9v-0.2h0.2l0,0c0,0,0,0,0.1,0h0.1l0,0l0.2,0.1c0,0,0.1,0,0.2,0c0.1,0,0.1-0.1,0.2-0.2
			c0-0.1,0.1-0.2,0.1-0.4c0-0.2,0-0.4,0-0.8c0,0,0-0.1,0-0.2C-454.5,1051.1-455.1,1049.1-456.4,1047.2z M-459.9,1041.1
			L-459.9,1041.1L-459.9,1041.1c0,0,0.2,0,0.2,0.1c0.2,0.2,0.6,0.9,0.6,1.5l0,0l0,0l0,0l0,0c-0.4-0.1-0.7-0.2-1-0.2
			c-0.4,0-0.7,0-0.8,0.1l0,0l0,0l0,0c0-0.4-0.3-0.6-0.4-0.7l0,0l0,0c0.3-0.3,0.7-0.5,1-0.7c0.2,0,0.2-0.1,0.3-0.2
			C-459.9,1041.1-459.9,1041.1-459.9,1041.1z M-462.1,1044.5L-462.1,1044.5L-462.1,1044.5L-462.1,1044.5c0.4-0.2,0.6-0.4,0.7-0.5
			l0,0l0,0c0.3,0.2,0.5,0.4,0.7,0.7c0.2,0.2,0.3,0.4,0.3,0.4l0,0c0,0,0,0.1-0.1,0.2c-0.2,0.2-0.9,0.4-1.5,0.6l0,0l0,0
			c0-0.1,0-0.2,0-0.2C-461.9,1045.1-462,1044.7-462.1,1044.5z M-462.6,1044.2c-0.7,0-1.3-0.5-1.3-1.2s0.6-1.2,1.3-1.2
			c0.7,0,1.3,0.5,1.3,1.2C-461.3,1043.6-461.8,1044.2-462.6,1044.2z M-462.3,1045.1c0,0.2,0,0.4,0,0.5v0.1l0,0l0,0c0,0-0.1,0-0.2,0
			c-0.2,0-0.5,0-0.9-0.2l0,0l0,0l0,0l0,0l0,0l0,0c0.2-0.5,0.3-0.9,0.3-1.2l0,0l0,0l0,0c0.3,0.1,0.6,0.2,0.8,0.2c0,0,0,0,0.1,0l0,0
			l0,0l0,0C-462.3,1044.7-462.3,1045-462.3,1045.1z M-465.2,1045.6L-465.2,1045.6L-465.2,1045.6L-465.2,1045.6L-465.2,1045.6
			L-465.2,1045.6L-465.2,1045.6c-0.4,0.2-0.7,0.3-0.9,0.3c-0.1,0-0.2,0-0.2,0l0,0l0,0l0,0l0,0c0-0.1-0.1-0.3-0.1-0.6
			c0-0.2,0-0.4,0-0.6l0,0l0,0l0,0l0,0c0,0,0,0,0.1,0c0.2,0,0.5,0,0.8-0.2l0,0l0,0l0,0l0,0C-465.5,1044.7-465.4,1045.1-465.2,1045.6z
			 M-466.3,1044.1c-0.7,0-1.3-0.5-1.3-1.2c0-0.7,0.6-1.2,1.3-1.2s1.3,0.5,1.3,1.2C-465,1043.5-465.6,1044.1-466.3,1044.1z
			 M-464.8,1043.7c0.2-0.2,0.5-0.2,0.6,0c0.2,0.2,0.4,0.5,0.5,0.6c0,0.4-0.1,0.9-0.6,1.6c0,0.1-0.2,0.2-0.3,0
			c-0.6-0.8-0.6-1.6-0.6-1.6C-464.9,1044.1-464.8,1043.7-464.8,1043.7z M-461.1,1043.8L-461.1,1043.8
			C-461.1,1043.7-461.1,1043.7-461.1,1043.8L-461.1,1043.8c0.2-0.3,0.2-0.6,0.2-0.8l0,0l0,0l0,0c0.1,0,0.2,0,0.3,0
			c0.4,0,0.8,0,1,0.2c0.2,0,0.4,0.2,0.4,0.2l0,0c0,0,0,0,0,0.2c0,0.3-0.2,1-0.7,1.5l0,0l0,0l0,0
			C-460.4,1044.1-460.9,1043.9-461.1,1043.8z M-462.4,1041.4c0-0.3,0.1-0.6,0.2-0.9c0.1-0.2,0.2-0.4,0.2-0.4l0,0l0,0c0,0,0,0,0.2,0
			l0,0c0.3,0,1,0.2,1.6,0.7l0,0l0,0c-0.6,0.3-1.2,0.9-1.3,1l0,0l0,0l0,0c-0.3-0.2-0.6-0.3-0.8-0.3
			C-462.4,1041.4-462.4,1041.4-462.4,1041.4L-462.4,1041.4z M-463.5,1040.2c0.2-0.2,0.6-0.2,1-0.3l0,0l0,0l0,0l0,0
			c-0.2,0.3-0.2,0.7-0.2,0.9c0,0.2,0,0.3,0,0.4l0,0l0,0c-0.4,0-0.7,0.2-0.8,0.2l0,0l0,0c-0.1-0.2-0.2-0.4-0.3-0.6
			c0-0.2-0.1-0.4-0.1-0.4l0,0C-463.9,1040.6-463.8,1040.4-463.5,1040.2z M-463.8,1041.8c-0.4,0.3-0.5,0.8-0.7,1.2
			c0-0.5-0.3-0.9-0.6-1.2c0,0,0.5-0.4,0.7-1.1C-464.3,1040.7-464.2,1041.3-463.8,1041.8z M-466.3,1040L-466.3,1040L-466.3,1040
			L-466.3,1040L-466.3,1040L-466.3,1040C-466.2,1040-466.2,1040-466.3,1040c0.3,0,0.7,0.1,1,0.2c0.2,0,0.3,0.2,0.4,0.2
			s0.2,0.2,0.2,0.2l0,0c0,0-0.1,0.2-0.2,0.4c-0.2,0.2-0.3,0.5-0.4,0.7l0,0l0,0l0,0c-0.2-0.1-0.4-0.2-0.8-0.2l0,0l0,0l0,0l0,0
			c0-0.1,0-0.2,0-0.4C-466.1,1040.6-466.2,1040.3-466.3,1040L-466.3,1040z M-468.6,1040.6c0.5-0.4,1.2-0.6,1.6-0.6
			c0.2,0,0.2,0,0.2,0l0,0l0,0c0,0,0.1,0.2,0.2,0.4c0.1,0.2,0.2,0.5,0.2,0.9l0,0l0,0c-0.2,0-0.5,0-0.8,0.3l0,0l0,0l0,0l0,0
			C-467.4,1041.5-468,1041-468.6,1040.6L-468.6,1040.6L-468.6,1040.6z M-469.8,1042.7L-469.8,1042.7L-469.8,1042.7L-469.8,1042.7
			c0-0.5,0.2-0.8,0.3-1.2c0.1-0.2,0.2-0.3,0.2-0.3c0.1-0.1,0.2-0.2,0.2-0.2l0,0l0,0l0,0c0,0,0,0,0.2,0c0.2,0,0.8,0.3,1.3,0.8l0,0
			l0,0c-0.1,0.1-0.3,0.3-0.4,0.7l0,0l0,0l0,0l0,0c-0.2,0-0.4-0.1-0.8-0.1C-468.9,1042.6-469.3,1042.6-469.8,1042.7L-469.8,1042.7
			L-469.8,1042.7z M-468.9,1044.8L-468.9,1044.8L-468.9,1044.8L-468.9,1044.8c-0.5-0.5-0.8-1.2-0.7-1.5c0-0.2,0-0.2,0.1-0.2l0,0l0,0
			c0,0,0,0,0.1,0c0.2-0.1,0.6-0.2,1.2-0.2c0.1,0,0.2,0,0.3,0l0,0l0,0l0,0c0,0.2,0,0.4,0.2,0.7l0,0l0,0l0,0l0,0
			C-467.8,1043.9-468.4,1044.1-468.9,1044.8z M-468,1045.5c-0.2,0-0.3-0.2-0.4-0.2s-0.2-0.2-0.1-0.2l0,0c0,0,0.1-0.2,0.3-0.5
			c0.2-0.2,0.5-0.5,0.8-0.7l0,0l0,0l0,0c0.1,0.1,0.3,0.3,0.7,0.4l0,0l0,0l0,0l0,0c0,0.2-0.2,0.6-0.2,1.1c0,0.1,0,0.2,0,0.2l0,0l0,0
			C-467.3,1045.8-467.8,1045.6-468,1045.5z M-459.8,1054.3c-0.2,0.3-0.5,0.6-0.8,1c-0.2,0.2-0.3,0.3-0.4,0.4
			c-0.1,0.1-0.2,0.2-0.2,0.3s-0.1,0.2-0.2,0.2v0.2c0,0.1,0,0.2,0,0.3c0,0.1,0.2,0.2,0.2,0.2c0.1,0,0.2,0,0.3,0c0.1,0,0.2,0,0.2,0
			c0.2,0,0.3,0,0.4,0l0,0c0.2,0,0.2,0.2,0.2,0.3l0,0c0,0,0,0,0,0.1c-0.1,0.1-0.2,0.2-0.5,0.2c0,0-0.1,0-0.2,0c-0.4,0-0.9,0.1-1,0.1
			c-0.2,0-0.5-0.1-0.8-0.1c-0.1,0-0.2,0-0.3,0c-0.2,0-0.4,0-0.6-0.1c-0.2,0-0.2,0-0.3,0l0,0l0,0l0,0l0,0l0,0l0,0l0,0l0,0l0,0l0,0
			l0,0l0,0l0,0l0,0l0,0l0,0l0,0l0,0h-0.2c-0.2,0-0.3,0-0.4,0s-0.2,0-0.3,0c-0.3,0.1-0.9,0.2-1.4,0.2c-0.2,0-0.4,0-0.5-0.1
			c0,0-0.1,0-0.1-0.1c0,0,0,0,0-0.1l0,0l0,0c0,0,0-0.1,0-0.2c0,0,0.1,0,0.2-0.1c0.1,0,0.3,0,0.5,0.1c0.1,0,0.2,0,0.3,0
			c0.2,0,0.4-0.1,0.5-0.2c0.2-0.2,0.3-0.4,0.4-0.6c0-0.1,0.1-0.2,0.1-0.3s0-0.2,0-0.2c0.1-0.2,0.4-0.7,0.4-0.7s0-0.1,0-0.2
			c0,0,0-0.2-0.2-0.5c0-0.3-0.2-0.6-0.2-0.7c0,0,0,0,0-0.1c0-0.2,0-0.5,0.2-0.8c0,0,0-0.1,0.1-0.2c0-0.1,0-0.2-0.1-0.2
			c-0.9-0.5-1.5-1-2.1-1.6c-0.4-0.4-0.7-0.9-0.9-1.3c-0.5-1-0.6-1.8-0.6-2.5c0-0.4,0-0.8,0-1.1c0.3,0.1,0.7,0.2,1,0.2
			c0.5,0,0.7,0,1.4-0.2c0.5,0.3,0.8,1,0.8,1.2c0.3-1,0.8-1.2,0.8-1.2s0.1,0,0.2,0.1c0,0.2-0.1,0.5-0.1,0.8c0,1,0.3,2.2,1,3.3
			c0.7,1,1.9,1.9,3.5,1.9l0,0c0.2,0,0.5,0,0.8,0c-0.3,0.3-0.8,0.5-1.3,0.7c-0.6,0.2-1.3,0.2-1.9,0.2c-0.7,0-1.2-0.1-1.4-0.2
			c-0.1,0-0.2,0-0.2,0.2c0,0.1,0,0.2,0.2,0.2c0.2,0,0.3,0.1,0.5,0.1l0,0c0,0.3,0.2,0.7,0.2,1.1c-0.1,0.2-0.2,0.2-0.2,0.3
			c-0.2,0.2-0.4,0.2-0.7,0.5c-0.3,0.2-0.6,0.7-1,1.4v0.2c0,0,0.2,0.1,0.2,0c0.1,0,0.3-0.1,0.6,0c0,0,0.1,0,0.2,0l0,0l0,0l0,0
			c0.1,0,0.2,0,0.2,0s0.2,0,0.3,0c0,0,0.1,0,0.2,0c0,0,0.1,0,0.2-0.1l0,0c0.1-0.1,0.2-0.4,0.4-0.7c0.2-0.3,0.3-0.6,0.3-0.6
			s0-0.1,0-0.2c0,0,0-0.1-0.1-0.2c-0.1-0.2-0.2-0.6-0.3-0.9s-0.2-0.7-0.2-0.8c0.2,0,0.4,0,0.6,0c0.5,0,1,0,1.5-0.2
			c0.2,0.2,0.4,0.4,0.5,0.7C-459.5,1053.9-459.6,1054.1-459.8,1054.3z M-462.2,1054.7l0.2-0.1v0.2c0.1,0.2,0.2,0.4,0.2,0.5l0,0l0,0
			c0,0.1-0.2,0.3-0.3,0.5c-0.1,0.2-0.2,0.3-0.2,0.4c0,0,0,0.1-0.1,0.2l0,0l0,0l0,0l0,0l0,0l0,0h-0.2h-0.2l0,0h-0.1v-0.1
			c0-0.6,0.3-1,0.3-1l0,0l0,0c0.1,0,0.2-0.2,0.2-0.2C-462.5,1054.9-462.4,1054.8-462.2,1054.7z M-456.4,1055.8
			c0,0.1-0.1,0.2-0.1,0.2s0,0-0.1,0c-0.1,0-0.2,0-0.4-0.2c-0.5-0.3-1.4-1.3-2.7-2.8c0,0,0,0,0.1,0c0.7-0.2,1.2-0.5,1.7-0.9
			c0.2,0.4,0.6,0.9,1,1.2c0.2,0.2,0.3,0.3,0.5,0.5c0,0.3,0,0.7,0,1C-456.2,1055.2-456.3,1055.6-456.4,1055.8z M-455.2,1053.3
			c0,0.5,0,0.8-0.1,1l0,0c-0.2-0.2-0.7-0.7-1.2-1.2s-1-1.1-1.2-1.4l0,0l0,0l0,0l0,0l0,0l0,0l0,0l0,0l0,0l0,0l0,0l0,0l0,0l0,0l0,0
			l0,0c-0.4,0.1-0.8,0.2-1.2,0.2c-1.4,0-2.6-0.7-3.3-1.6c-0.7-1-0.8-2.3-0.8-3.2c0-0.2,0-0.5,0.1-0.7c0.3,0,0.6,0,1,0
			c1,0,1.7-0.4,2.3-1c0.1-0.1,0.2-0.2,0.3-0.3c0.9,0.8,3.4,3.2,4,6.6c-2.2-1-3.7-2.8-4.2-4.3c0-0.1-0.2-0.2-0.2-0.1
			c-0.1,0-0.2,0.2-0.2,0.2c0.6,1.6,2.2,3.6,4.6,4.6C-455.3,1052.5-455.2,1052.9-455.2,1053.3
			C-455.2,1053.2-455.2,1053.2-455.2,1053.3z"/>
		<path class="st2" d="M-470.5,1081.8c-0.9-1.3-1.9-2.2-2.4-2.7h-0.1v-0.1c0.2-0.4,0.4-1,0.4-1.5c0-0.9-0.3-1.6-1-2.2
			c-0.8-0.8-1.7-1-2.6-1c-0.5,0-1.6,0.2-2.1,0.7h-0.1h-0.1c-1-0.8-2.6-0.7-2.6-0.7c-1.7,0.1-3.3,1.4-3.2,3.2c0,0.8,0.3,1.5,1,2.3
			c0.4,0.4,1.2,0.8,1.2,0.8v0.1c0,0.1,0,0,0,0.2c0,0.2,0,0.6,0,0.9c0,1,0.2,2,0.6,2.8c0.6,1.1,1.2,1.7,2.8,2.9v0.2
			c-0.2,0.3-0.2,0.7-0.1,0.9c0,0.2,0.2,0.9,0.3,1.2l0,0c0,0-0.3,0.8-0.4,0.9c0,0,0,0,0,0.1c-0.1,0.2-0.2,0.4-0.3,0.6
			c-0.1,0.2-0.2,0.3-0.5,0.3h-0.2c-0.2-0.1-0.4-0.1-0.6-0.1l0,0c-0.2,0-0.3,0-0.4,0.2c0,0.1-0.1,0.2-0.1,0.3c0,0,0,0,0,0.1l0,0l0,0
			c0,0.1,0,0.2,0.1,0.2c0.1,0.1,0.2,0.2,0.3,0.2c0.2,0,0.3,0,0.5,0c0.5,0,1.1-0.1,1.4-0.2h0.2l0,0c0.2,0,0.3,0,0.4,0
			c0,0,0.1,0,0.2,0l0,0l0,0l0,0l0,0l0,0l0,0l0,0h0.2c0.5,0.1,1.3,0.2,2.1,0.2c0.5,0,0.9,0,1.2,0c0.2,0,0.6-0.1,0.5-0.6
			c0,0,0-0.6-1-0.5h-0.2c0,0-0.2,0-0.1-0.1c0-0.2,0.5-0.6,0.7-0.9l0,0c0.2-0.2,0.5-0.6,0.8-0.9c0.1-0.2,0.2-0.2,0.3-0.3l0.1-0.2
			l0.1,0.2c0.4,0.4,0.7,0.8,1,1.1c0.3,0.3,0.5,0.5,0.7,0.6c0.2,0.2,0.4,0.2,0.5,0.2h0.1l0,0l0,0h0.2l0,0c0.2,0,0.2,0,0.3-0.2
			c0.2-0.2,0.2-0.3,0.3-0.6c0-0.2,0-0.5,0.1-0.9v-0.2h0.2l0,0c0,0,0,0,0.1,0h0.1l0,0l0.2,0.1c0,0,0.1,0,0.2,0c0.1,0,0.1-0.1,0.2-0.2
			c0-0.1,0.1-0.2,0.1-0.4c0-0.2,0-0.4,0-0.8c0,0,0-0.1,0-0.2C-468.5,1085.7-469.1,1083.7-470.5,1081.8z M-473.9,1075.6
			L-473.9,1075.6L-473.9,1075.6c0,0,0.2,0,0.2,0.1c0.2,0.2,0.6,0.9,0.6,1.5l0,0l0,0l0,0l0,0c-0.4-0.1-0.7-0.2-1-0.2
			c-0.4,0-0.7,0-0.8,0.1l0,0l0,0l0,0c0-0.4-0.3-0.6-0.4-0.7l0,0l0,0c0.3-0.3,0.7-0.5,1-0.7c0.2,0,0.2-0.1,0.3-0.2
			C-473.9,1075.6-473.9,1075.6-473.9,1075.6z M-476.1,1079.1L-476.1,1079.1C-476.1,1079-476.1,1079-476.1,1079.1L-476.1,1079.1
			c0.4-0.2,0.6-0.4,0.7-0.5l0,0l0,0c0.3,0.2,0.5,0.4,0.7,0.7c0.2,0.2,0.3,0.4,0.3,0.4l0,0c0,0,0,0.1-0.1,0.2
			c-0.2,0.2-0.9,0.4-1.5,0.6l0,0l0,0c0-0.1,0-0.2,0-0.2C-475.9,1079.7-476,1079.3-476.1,1079.1z M-476.6,1078.7
			c-0.7,0-1.3-0.5-1.3-1.2s0.6-1.2,1.3-1.2c0.7,0,1.3,0.5,1.3,1.2S-475.9,1078.7-476.6,1078.7z M-476.4,1079.8c0,0.2,0,0.4,0,0.5
			v0.1l0,0l0,0c0,0-0.1,0-0.2,0c-0.2,0-0.5,0-0.9-0.2l0,0l0,0l0,0l0,0l0,0l0,0c0.2-0.5,0.3-0.9,0.3-1.2l0,0l0,0l0,0
			c0.3,0.1,0.6,0.2,0.8,0.2c0,0,0,0,0.1,0l0,0l0,0l0,0C-476.4,1079.4-476.4,1079.6-476.4,1079.8z M-479.2,1080.1L-479.2,1080.1
			L-479.2,1080.1C-479.2,1080.2-479.2,1080.2-479.2,1080.1C-479.2,1080.2-479.2,1080.2-479.2,1080.1
			C-479.2,1080.2-479.2,1080.2-479.2,1080.1L-479.2,1080.1c-0.4,0.2-0.7,0.3-0.9,0.3c-0.1,0-0.2,0-0.2,0l0,0l0,0l0,0l0,0
			c0-0.1-0.1-0.3-0.1-0.6c0-0.2,0-0.4,0-0.6l0,0l0,0l0,0l0,0c0,0,0,0,0.1,0c0.2,0,0.5,0,0.8-0.2l0,0l0,0l0,0l0,0
			C-479.5,1079.2-479.5,1079.6-479.2,1080.1z M-480.3,1078.7c-0.7,0-1.3-0.5-1.3-1.2s0.6-1.2,1.3-1.2c0.7,0,1.3,0.5,1.3,1.2
			S-479.6,1078.7-480.3,1078.7z M-478.8,1078.2c0.2-0.2,0.5-0.2,0.6,0c0.2,0.2,0.4,0.5,0.5,0.6c0,0.4-0.1,0.9-0.6,1.6
			c0,0.1-0.2,0.2-0.3,0c-0.6-0.8-0.6-1.6-0.6-1.6C-479,1078.7-478.8,1078.2-478.8,1078.2z M-475.2,1078.4L-475.2,1078.4
			L-475.2,1078.4L-475.2,1078.4c0.2-0.3,0.2-0.6,0.2-0.8v-0.1l0,0l0,0c0.1,0,0.2,0,0.3,0c0.4,0,0.8,0,1,0.2c0.2,0,0.4,0.2,0.4,0.2
			l0,0c0,0,0,0,0,0.2c0,0.3-0.2,1-0.7,1.5l0,0l0,0l0,0C-474.4,1078.7-475,1078.5-475.2,1078.4z M-476.4,1075.9
			c0-0.3,0.1-0.6,0.2-0.9c0.1-0.2,0.2-0.4,0.2-0.4l0,0l0,0c0,0,0,0,0.2,0l0,0c0.3,0,1,0.2,1.6,0.7l0,0l0,0c-0.6,0.3-1.2,0.9-1.3,1
			l0,0l0,0l0,0C-475.9,1076.1-476.1,1076-476.4,1075.9C-476.4,1076-476.4,1076-476.4,1075.9L-476.4,1075.9z M-477.6,1074.8
			c0.2-0.2,0.6-0.2,1-0.3l0,0l0,0l0,0l0,0c-0.2,0.3-0.2,0.7-0.2,0.9c0,0.2,0,0.3,0,0.4l0,0l0,0c-0.4,0-0.7,0.2-0.8,0.2l0,0l0,0
			c-0.1-0.2-0.2-0.4-0.3-0.6c0-0.2-0.1-0.4-0.1-0.4l0,0C-477.9,1075.1-477.8,1075-477.6,1074.8z M-477.8,1076.4
			c-0.4,0.3-0.5,0.8-0.7,1.2c0-0.5-0.3-0.9-0.6-1.2c0,0,0.5-0.4,0.7-1.1C-478.3,1075.3-478.2,1075.9-477.8,1076.4z M-480.4,1074.6
			L-480.4,1074.6L-480.4,1074.6C-480.3,1074.6-480.3,1074.6-480.4,1074.6L-480.4,1074.6L-480.4,1074.6
			C-480.3,1074.6-480.3,1074.6-480.4,1074.6c0.3,0,0.7,0.1,1,0.2c0.2,0,0.3,0.2,0.4,0.2c0.1,0,0.2,0.2,0.2,0.2l0,0
			c0,0-0.1,0.2-0.2,0.4c-0.2,0.2-0.3,0.5-0.4,0.7l0,0l0,0l0,0c-0.1-0.1-0.4-0.3-0.8-0.3l0,0l0,0l0,0l0,0c0-0.1,0-0.2,0-0.4
			C-480.2,1075.2-480.2,1074.9-480.4,1074.6L-480.4,1074.6z M-482.6,1075.2c0.5-0.4,1.2-0.6,1.6-0.6c0.2,0,0.2,0,0.2,0l0,0l0,0
			c0,0,0.1,0.2,0.2,0.4s0.2,0.5,0.2,0.9l0,0l0,0c-0.2,0-0.5,0-0.8,0.3l0,0l0,0l0,0l0,0C-481.4,1076.1-482,1075.6-482.6,1075.2
			L-482.6,1075.2L-482.6,1075.2z M-483.8,1077.3L-483.8,1077.3L-483.8,1077.3C-483.8,1077.2-483.8,1077.2-483.8,1077.3
			c0-0.5,0.2-0.8,0.3-1.2c0.1-0.2,0.2-0.3,0.2-0.3c0.1-0.1,0.2-0.2,0.2-0.2l0,0l0,0l0,0c0,0,0,0,0.2,0c0.2,0,0.8,0.3,1.3,0.8l0,0
			l0,0c-0.1,0.1-0.3,0.3-0.4,0.7l0,0l0,0l0,0l0,0c-0.2,0-0.4-0.1-0.8-0.1C-483,1077.2-483.3,1077.2-483.8,1077.3L-483.8,1077.3
			L-483.8,1077.3z M-483,1079.4L-483,1079.4L-483,1079.4L-483,1079.4c-0.5-0.5-0.8-1.2-0.7-1.5c0-0.2,0-0.2,0.1-0.2l0,0l0,0
			c0,0,0,0,0.1,0c0.2-0.1,0.6-0.2,1.2-0.2c0.1,0,0.2,0,0.3,0l0,0l0,0l0,0c0,0.2,0,0.4,0.2,0.7l0,0l0,0l0,0l0,0
			C-481.9,1078.5-482.4,1078.7-483,1079.4z M-482.1,1080.1c-0.2,0-0.3-0.2-0.4-0.2s-0.2-0.2-0.1-0.2l0,0c0,0,0.1-0.2,0.3-0.5
			c0.2-0.2,0.5-0.5,0.8-0.7l0,0l0,0l0,0c0.1,0.1,0.3,0.3,0.7,0.4l0,0l0,0l0,0l0,0c0,0.2-0.2,0.6-0.2,1.1c0,0.1,0,0.2,0,0.2l0,0l0,0
			C-481.4,1080.4-481.8,1080.2-482.1,1080.1z M-473.8,1088.8c-0.2,0.3-0.5,0.6-0.8,1c-0.2,0.2-0.3,0.3-0.4,0.4
			c-0.1,0.1-0.2,0.2-0.2,0.3s-0.1,0.2-0.2,0.2v0.2c0,0.1,0,0.2,0,0.3c0,0.1,0.2,0.2,0.2,0.2c0.1,0,0.2,0,0.3,0s0.2,0,0.2,0
			c0.2,0,0.3,0,0.4,0l0,0c0.2,0,0.2,0.2,0.2,0.3l0,0c0,0,0,0,0,0.1c-0.1,0.1-0.2,0.2-0.5,0.2c0,0-0.1,0-0.2,0c-0.4,0-0.9,0.1-1,0.1
			c-0.2,0-0.5-0.1-0.8-0.1c-0.1,0-0.2,0-0.3,0c-0.2,0-0.4,0-0.6-0.1c-0.2,0-0.2,0-0.3,0l0,0l0,0l0,0l0,0l0,0l0,0l0,0l0,0l0,0l0,0
			l0,0l0,0l0,0l0,0l0,0l0,0l0,0l0,0h-0.2c-0.2,0-0.3,0-0.4,0s-0.2,0-0.3,0c-0.3,0.1-0.9,0.2-1.4,0.2c-0.2,0-0.4,0-0.5-0.1
			c0,0-0.1,0-0.1-0.1c0,0,0,0,0-0.1l0,0l0,0c0,0,0-0.1,0-0.2c0,0,0.1,0,0.2-0.1c0.1,0,0.3,0,0.5,0.1c0.1,0,0.2,0,0.3,0
			c0.2,0,0.4-0.1,0.5-0.2c0.2-0.2,0.3-0.4,0.4-0.6c0-0.1,0.1-0.2,0.1-0.3s0-0.2,0-0.2c0.1-0.2,0.4-0.7,0.4-0.7s0-0.1,0-0.2
			c0,0,0-0.2-0.2-0.5c0-0.3-0.2-0.6-0.2-0.7c0,0,0,0,0-0.1c0-0.2,0-0.5,0.2-0.8c0,0,0-0.1,0.1-0.2v-0.2l0,0c-0.9-0.5-1.5-1-2.1-1.6
			c-0.4-0.4-0.7-0.9-0.9-1.3c-0.5-1-0.6-1.8-0.6-2.5c0-0.4,0-0.8,0-1.1c0.3,0.1,0.7,0.2,1,0.2c0.5,0,0.7,0,1.4-0.2
			c0.5,0.3,0.8,1,0.8,1.2c0.3-1,0.8-1.2,0.8-1.2s0.1,0,0.2,0.1c0,0.2-0.1,0.5-0.1,0.8c0,1,0.3,2.2,1,3.3c0.7,1,1.9,1.9,3.5,1.9l0,0
			c0.2,0,0.5,0,0.8,0c-0.3,0.3-0.8,0.5-1.3,0.7c-0.6,0.2-1.3,0.2-1.9,0.2c-0.7,0-1.2-0.1-1.4-0.2c-0.1,0-0.2,0-0.2,0.2
			c0,0.1,0,0.2,0.2,0.2c0.2,0,0.3,0.1,0.5,0.1l0,0c0,0.3,0.2,0.7,0.2,1.1c-0.1,0.2-0.2,0.2-0.2,0.3c-0.2,0.2-0.4,0.2-0.7,0.5
			c-0.3,0.3-0.6,0.7-1,1.4v0.2c0,0,0.2,0.1,0.2,0c0.1,0,0.3-0.1,0.6,0c0,0,0.1,0,0.2,0h0.1l0,0l0,0c0.1,0,0.2,0,0.2,0
			c0.1,0,0.2,0,0.3,0c0,0,0.1,0,0.2,0c0,0,0.1,0,0.2-0.1l0,0c0.1-0.1,0.2-0.4,0.4-0.7c0.2-0.3,0.3-0.6,0.3-0.6s0-0.1,0-0.2
			c0,0,0-0.1-0.1-0.2c-0.1-0.2-0.2-0.6-0.3-0.9s-0.2-0.7-0.2-0.8c0.2,0,0.4,0,0.6,0c0.5,0,1,0,1.5-0.2c0.2,0.2,0.4,0.4,0.5,0.7
			C-473.5,1088.5-473.6,1088.6-473.8,1088.8z M-476.2,1089.3h0.2v0.2c0.1,0.2,0.2,0.4,0.2,0.5l0,0l0,0c0,0.1-0.2,0.3-0.3,0.5
			s-0.2,0.3-0.2,0.4c0,0,0,0.1-0.1,0.2l0,0l0,0l0,0l0,0l0,0l0,0h-0.2h-0.2h-0.1h-0.1v-0.1c0-0.6,0.3-1,0.3-1l0,0l0,0
			c0.1,0,0.2-0.2,0.2-0.2C-476.5,1089.5-476.4,1089.4-476.2,1089.3z M-470.4,1090.4c0,0.1-0.1,0.2-0.1,0.2s0,0-0.1,0
			c-0.1,0-0.2,0-0.4-0.2c-0.5-0.3-1.4-1.3-2.7-2.8c0,0,0,0,0.1,0c0.7-0.2,1.2-0.5,1.7-0.9c0.2,0.4,0.6,0.9,1,1.2
			c0.2,0.2,0.3,0.3,0.5,0.5c0,0.3,0,0.7,0,1C-470.3,1089.8-470.3,1090.2-470.4,1090.4z M-469.2,1087.9c0,0.5,0,0.8-0.1,1l0,0
			c-0.2-0.2-0.7-0.7-1.2-1.2s-1-1.1-1.2-1.4l0,0l0,0l0,0l0,0l0,0l0,0l0,0l0,0l0,0l0,0l0,0l0,0l0,0l0,0l0,0l0,0
			c-0.4,0.1-0.8,0.2-1.2,0.2c-1.4,0-2.6-0.7-3.3-1.6c-0.7-1-0.8-2.3-0.8-3.2c0-0.2,0-0.5,0.1-0.7c0.3,0,0.6,0,1,0c1,0,1.7-0.4,2.3-1
			c0.1-0.1,0.2-0.2,0.3-0.3c0.9,0.8,3.5,3.2,4,6.6c-2.2-1-3.7-2.8-4.2-4.3c0-0.1-0.2-0.2-0.2-0.1c-0.1,0-0.2,0.2-0.2,0.2
			c0.6,1.6,2.2,3.6,4.6,4.6C-469.3,1087.1-469.2,1087.5-469.2,1087.9C-469.2,1087.7-469.2,1087.8-469.2,1087.9z"/>
		<path class="st2" d="M-487.4,1047.2c-0.9-1.3-1.9-2.2-2.4-2.7h-0.1v-0.1c0.2-0.4,0.4-1,0.4-1.5c0-0.9-0.3-1.6-1-2.2
			c-0.8-0.8-1.7-1-2.6-1c-0.5,0-1.6,0.2-2.1,0.7h-0.1l0,0c-1-0.8-2.6-0.7-2.6-0.7c-1.7,0.1-3.3,1.4-3.2,3.2c0,0.8,0.3,1.5,1,2.3
			c0.4,0.4,1.2,0.8,1.2,0.8v0.1c0,0.1,0,0,0,0.2c0,0.2,0,0.6,0,0.9c0,1,0.2,2,0.6,2.8c0.6,1.1,1.2,1.7,2.8,2.9v0.2
			c-0.2,0.3-0.2,0.7-0.1,0.9c0,0.2,0.2,0.9,0.3,1.2l0,0c0,0-0.3,0.8-0.4,0.9c0,0,0,0,0,0.1c-0.1,0.2-0.2,0.4-0.3,0.6
			c0.1,0.1,0,0.2-0.3,0.2h-0.2c-0.2-0.1-0.4-0.1-0.6-0.1l0,0c-0.2,0-0.3,0-0.4,0.2c0,0.1-0.1,0.2-0.1,0.3c0,0,0,0,0,0.1l0,0l0,0
			c0,0.1,0,0.2,0.1,0.2c0.1,0.1,0.2,0.2,0.3,0.2c0.2,0,0.3,0,0.5,0c0.5,0,1.1-0.1,1.4-0.2h0.2l0,0c0.2,0,0.3,0,0.4,0
			c0,0,0.1,0,0.2,0l0,0l0,0l0,0l0,0l0,0l0,0l0,0h0.2c0.5,0.1,1.3,0.2,2.1,0.2c0.5,0,0.9,0,1.2,0c0.2,0,0.6-0.1,0.5-0.6
			c0,0,0-0.6-1-0.4h-0.2c0,0-0.2,0-0.1-0.1c0-0.2,0.5-0.6,0.7-0.9l0,0c0.2-0.2,0.5-0.6,0.8-0.9c0.1-0.2,0.2-0.2,0.3-0.3l0.1-0.2
			l0.1,0.2c0.4,0.5,0.7,0.8,1,1.1c0.3,0.3,0.5,0.5,0.7,0.6c0.2,0.2,0.4,0.2,0.5,0.2h0.1l0,0l0,0h0.2l0,0c0.2,0,0.2,0,0.3-0.2
			c0.2-0.2,0.2-0.3,0.3-0.6c0-0.2,0-0.5,0.1-0.9v-0.2h0.2l0,0c0,0,0,0,0.1,0h0.1l0,0l0.2,0.1c0,0,0.1,0,0.2,0s0.1-0.1,0.2-0.2
			c0-0.1,0.1-0.2,0.1-0.4c0-0.2,0-0.4,0-0.8c0,0,0-0.1,0-0.2C-485.4,1051.1-486.1,1049.1-487.4,1047.2z M-490.8,1041.1
			L-490.8,1041.1L-490.8,1041.1c0,0,0.2,0,0.2,0.1c0.2,0.2,0.6,0.9,0.6,1.5l0,0l0,0l0,0l0,0c-0.4-0.1-0.7-0.2-1-0.2
			c-0.4,0-0.7,0-0.8,0.1l0,0l0,0l0,0c0-0.4-0.3-0.6-0.4-0.7l0,0l0,0c0.3-0.3,0.7-0.5,1-0.7c0.2,0,0.2-0.1,0.3-0.2
			C-490.9,1041.1-490.8,1041.1-490.8,1041.1z M-493.1,1044.5L-493.1,1044.5L-493.1,1044.5L-493.1,1044.5c0.4-0.2,0.6-0.4,0.7-0.5
			l0,0l0,0c0.3,0.2,0.5,0.4,0.7,0.7c0.2,0.2,0.3,0.4,0.3,0.4l0,0c0,0,0,0.1-0.1,0.2c-0.2,0.2-0.9,0.4-1.5,0.6l0,0l0,0
			c0-0.1,0-0.2,0-0.2C-492.9,1045.1-493,1044.7-493.1,1044.5z M-493.5,1044.2c-0.7,0-1.3-0.5-1.3-1.2s0.6-1.2,1.3-1.2
			s1.3,0.5,1.3,1.2C-492.3,1043.6-492.8,1044.2-493.5,1044.2z M-493.3,1045.1c0,0.2,0,0.4,0,0.5v0.1l0,0l0,0c0,0-0.1,0-0.2,0
			c-0.2,0-0.5,0-0.9-0.2l0,0l0,0l0,0l0,0l0,0l0,0c0.2-0.5,0.3-0.9,0.3-1.2l0,0l0,0l0,0c0.3,0.1,0.6,0.2,0.8,0.2c0,0,0,0,0.1,0l0,0
			l0,0l0,0C-493.3,1044.7-493.3,1045-493.3,1045.1z M-496.2,1045.6L-496.2,1045.6L-496.2,1045.6L-496.2,1045.6L-496.2,1045.6
			L-496.2,1045.6L-496.2,1045.6c-0.4,0.2-0.7,0.3-0.9,0.3c-0.1,0-0.2,0-0.2,0l0,0l0,0l0,0l0,0c0-0.1-0.1-0.3-0.1-0.6
			c0-0.2,0-0.4,0-0.6l0,0l0,0l0,0l0,0c0,0,0,0,0.1,0c0.2,0,0.5,0,0.8-0.2l0,0l0,0l0,0l0,0C-496.5,1044.7-496.4,1045.1-496.2,1045.6z
			 M-497.2,1044.1c-0.7,0-1.3-0.5-1.3-1.2c0-0.7,0.6-1.2,1.3-1.2c0.7,0,1.3,0.5,1.3,1.2C-496,1043.5-496.5,1044.1-497.2,1044.1z
			 M-495.8,1043.7c0.2-0.2,0.5-0.2,0.6,0c0.2,0.2,0.4,0.5,0.5,0.6c0,0.4-0.1,0.9-0.6,1.6c0,0.1-0.2,0.2-0.3,0
			c-0.6-0.8-0.6-1.6-0.6-1.6C-495.9,1044.1-495.8,1043.7-495.8,1043.7z M-492.1,1043.8L-492.1,1043.8
			C-492.1,1043.7-492.1,1043.7-492.1,1043.8L-492.1,1043.8c0.2-0.3,0.2-0.6,0.2-0.8l0,0l0,0l0,0c0.1,0,0.2,0,0.3,0
			c0.4,0,0.8,0,1,0.2c0.2,0,0.4,0.2,0.4,0.2l0,0c0,0,0,0,0,0.2c0,0.3-0.2,1-0.7,1.5l0,0l0,0l0,0
			C-491.4,1044.1-492,1043.9-492.1,1043.8z M-493.4,1041.4c0-0.3,0.1-0.6,0.2-0.9c0.1-0.2,0.2-0.4,0.2-0.4l0,0l0,0c0,0,0,0,0.2,0
			l0,0c0.3,0,1,0.2,1.6,0.7l0,0l0,0c-0.6,0.3-1.2,0.9-1.3,1l0,0l0,0l0,0C-492.9,1041.6-493.1,1041.5-493.4,1041.4
			C-493.4,1041.4-493.4,1041.4-493.4,1041.4L-493.4,1041.4z M-494.5,1040.2c0.2-0.2,0.6-0.2,1-0.3l0,0l0,0l0,0l0,0
			c-0.2,0.3-0.2,0.7-0.2,0.9c0,0.2,0,0.3,0,0.4l0,0l0,0c-0.4,0-0.7,0.2-0.8,0.2l0,0l0,0c-0.1-0.2-0.2-0.4-0.3-0.6
			c0-0.2-0.1-0.4-0.1-0.4l0,0C-494.9,1040.6-494.8,1040.4-494.5,1040.2z M-494.8,1041.8c-0.4,0.3-0.5,0.8-0.7,1.2
			c0-0.5-0.3-0.9-0.6-1.2c0,0,0.5-0.4,0.7-1.1C-495.3,1040.7-495.2,1041.3-494.8,1041.8z M-497.3,1040L-497.3,1040L-497.3,1040
			L-497.3,1040L-497.3,1040L-497.3,1040C-497.2,1040-497.2,1040-497.3,1040c0.3,0,0.7,0.1,1,0.2c0.2,0,0.3,0.2,0.4,0.2
			s0.2,0.2,0.2,0.2l0,0c0,0-0.1,0.2-0.2,0.4c-0.2,0.2-0.3,0.5-0.4,0.7l0,0l0,0l0,0c-0.2-0.1-0.4-0.2-0.8-0.2l0,0l0,0l0,0l0,0
			c0-0.1,0-0.2,0-0.4C-497.2,1040.6-497.2,1040.3-497.3,1040L-497.3,1040z M-499.6,1040.6c0.5-0.4,1.2-0.6,1.6-0.6
			c0.2,0,0.2,0,0.2,0l0,0l0,0c0,0,0.1,0.2,0.2,0.4c0.1,0.2,0.2,0.5,0.2,0.9l0,0l0,0c-0.2,0-0.5,0-0.8,0.3l0,0l0,0l0,0l0,0
			C-498.4,1041.5-499,1041-499.6,1040.6L-499.6,1040.6L-499.6,1040.6z M-500.8,1042.7L-500.8,1042.7L-500.8,1042.7L-500.8,1042.7
			c0-0.5,0.2-0.8,0.3-1.2c0.1-0.2,0.2-0.3,0.2-0.3c0.1-0.1,0.2-0.2,0.2-0.2l0,0l0,0l0,0c0,0,0,0,0.2,0c0.2,0,0.8,0.3,1.3,0.8l0,0
			l0,0c-0.1,0.1-0.3,0.3-0.4,0.7l0,0l0,0l0,0l0,0c-0.2,0-0.4-0.1-0.8-0.1C-499.9,1042.6-500.3,1042.6-500.8,1042.7L-500.8,1042.7
			L-500.8,1042.7z M-499.9,1044.8L-499.9,1044.8L-499.9,1044.8L-499.9,1044.8c-0.5-0.5-0.8-1.2-0.7-1.5c0-0.2,0-0.2,0.1-0.2l0,0l0,0
			c0,0,0,0,0.1,0c0.2-0.1,0.6-0.2,1.2-0.2c0.1,0,0.2,0,0.3,0l0,0l0,0l0,0c0,0.2,0,0.4,0.2,0.7l0,0l0,0l0,0l0,0
			C-498.8,1043.9-499.4,1044.1-499.9,1044.8z M-499.1,1045.5c-0.2,0-0.3-0.2-0.4-0.2s-0.2-0.2-0.1-0.2l0,0c0,0,0.1-0.2,0.3-0.5
			c0.2-0.2,0.5-0.5,0.8-0.7l0,0l0,0l0,0c0.1,0.1,0.3,0.3,0.7,0.4l0,0l0,0l0,0l0,0c0,0.2-0.2,0.6-0.2,1.1c0,0.1,0,0.2,0,0.2l0,0l0,0
			C-498.3,1045.8-498.8,1045.6-499.1,1045.5z M-490.8,1054.3c-0.2,0.3-0.5,0.6-0.8,1c-0.2,0.2-0.3,0.3-0.4,0.4
			c-0.1,0.1-0.2,0.2-0.2,0.3s-0.1,0.2-0.2,0.2v0.2c0,0.1,0,0.2,0,0.3c0,0.1,0.2,0.2,0.2,0.2c0.1,0,0.2,0,0.3,0s0.2,0,0.2,0
			c0.2,0,0.3,0,0.4,0l0,0c0.2,0,0.2,0.2,0.2,0.3l0,0c0,0,0,0,0,0.1c-0.1,0.1-0.2,0.2-0.5,0.2c0,0-0.1,0-0.2,0c-0.4,0-0.9,0.1-1,0.1
			c-0.2,0-0.5-0.1-0.8-0.1c-0.1,0-0.2,0-0.3,0c-0.2,0-0.4,0-0.5-0.1c-0.2,0-0.2,0-0.3,0l0,0l0,0l0,0l0,0l0,0l0,0l0,0l0,0l0,0l0,0
			l0,0l0,0l0,0l0,0l0,0l0,0l0,0l0,0h-0.2c-0.2,0-0.3,0-0.4,0c-0.1,0-0.2,0-0.3,0c-0.3,0.1-0.9,0.2-1.4,0.2c-0.2,0-0.4,0-0.5-0.1
			c0,0-0.1,0-0.1-0.1c0,0,0,0,0-0.1l0,0l0,0c0,0,0-0.1,0-0.2s0.1,0,0.2-0.1c0.1,0,0.3,0,0.5,0.1c0.1,0,0.2,0,0.3,0
			c0.2,0,0.4-0.1,0.5-0.2c0.2-0.2,0.3-0.4,0.4-0.6c0-0.1,0.1-0.2,0.1-0.3s0-0.2,0-0.2c0.1-0.2,0.4-0.7,0.4-0.7s0-0.1,0-0.2
			c0,0,0-0.2-0.2-0.5c0-0.3-0.2-0.6-0.2-0.7c0,0,0,0,0-0.1c0-0.2,0-0.5,0.2-0.8c0,0,0-0.1,0.1-0.2v-0.2l0,0c-0.9-0.5-1.5-1-2.1-1.6
			c-0.4-0.4-0.7-0.9-0.9-1.3c-0.5-1-0.6-1.8-0.6-2.5c0-0.4,0-0.8,0-1.1c0.3,0.1,0.7,0.2,1,0.2c0.5,0,0.7,0,1.4-0.2
			c0.5,0.3,0.8,1,0.8,1.2c0.3-1,0.8-1.2,0.8-1.2s0.1,0,0.2,0.1c0,0.2-0.1,0.5-0.1,0.8c0,1,0.3,2.2,1,3.3c0.7,1,1.9,1.9,3.5,1.9l0,0
			c0.2,0,0.5,0,0.8,0c-0.3,0.3-0.8,0.5-1.3,0.7c-0.6,0.2-1.3,0.2-1.9,0.2c-0.7,0-1.2-0.1-1.4-0.2c-0.1,0-0.2,0-0.2,0.2
			c0,0.1,0,0.2,0.2,0.2s0.3,0.1,0.5,0.1l0,0c0,0.3,0.1,0.7,0.2,1.1c-0.1,0.2-0.2,0.2-0.2,0.3c-0.2,0.2-0.4,0.2-0.7,0.5
			c-0.3,0.2-0.6,0.7-1,1.4v0.2c0,0,0.2,0.1,0.2,0c0.1,0,0.3-0.1,0.6,0c0,0,0.1,0,0.2,0l0,0l0,0l0,0c0.1,0,0.2,0,0.2,0
			c0.1,0,0.2,0,0.3,0c0,0,0.1,0,0.2,0c0,0,0.1,0,0.2-0.1l0,0c0.1-0.1,0.2-0.4,0.4-0.7c0.2-0.3,0.3-0.6,0.3-0.6s0-0.1,0-0.2
			c0,0,0-0.1-0.1-0.2c-0.1-0.2-0.2-0.6-0.3-0.9s-0.2-0.7-0.2-0.8c0.2,0,0.4,0,0.6,0c0.5,0,1,0,1.5-0.2c0.2,0.2,0.4,0.4,0.5,0.7
			C-490.5,1053.9-490.6,1054.1-490.8,1054.3z M-493.1,1054.7l0.2-0.1v0.2c0.1,0.2,0.2,0.4,0.2,0.5l0,0l0,0c0,0.1-0.2,0.3-0.3,0.5
			c-0.1,0.2-0.2,0.3-0.2,0.4c0,0,0,0.1-0.1,0.2l0,0l0,0l0,0l0,0l0,0l0,0h-0.2h-0.2l0,0h-0.1v-0.1c0-0.6,0.3-1,0.3-1l0,0l0,0
			c0.1,0,0.2-0.2,0.2-0.2C-493.5,1054.9-493.4,1054.8-493.1,1054.7z M-487.3,1055.8c0,0.1-0.1,0.2-0.1,0.2s0,0-0.1,0
			c-0.1,0-0.2,0-0.4-0.2c-0.5-0.3-1.4-1.3-2.7-2.8c0,0,0,0,0.1,0c0.7-0.2,1.2-0.5,1.7-0.9c0.2,0.4,0.6,0.9,1,1.2
			c0.2,0.2,0.3,0.3,0.5,0.5c0,0.3,0,0.7,0,1C-487.2,1055.2-487.3,1055.6-487.3,1055.8z M-486.2,1053.3c0,0.5,0,0.8-0.1,1l0,0
			c-0.2-0.2-0.7-0.7-1.2-1.2s-1-1.1-1.2-1.4l0,0l0,0l0,0l0,0l0,0l0,0l0,0l0,0l0,0l0,0l0,0l0,0l0,0l0,0l0,0l0,0
			c-0.4,0.1-0.8,0.2-1.2,0.2c-1.4,0-2.6-0.7-3.3-1.6c-0.7-1-0.8-2.3-0.8-3.2c0-0.2,0-0.5,0.1-0.7c0.3,0,0.6,0,1,0c1,0,1.7-0.4,2.3-1
			c0.1-0.1,0.2-0.2,0.3-0.3c0.9,0.8,3.5,3.2,4,6.6c-2.2-1-3.7-2.8-4.2-4.3c0-0.1-0.2-0.2-0.2-0.1c-0.1,0-0.2,0.2-0.2,0.2
			c0.6,1.6,2.2,3.6,4.6,4.6C-486.3,1052.5-486.2,1052.9-486.2,1053.3C-486.2,1053.2-486.2,1053.2-486.2,1053.3z"/>
		<path class="st3" d="M-495.5,1083.5c6.3,7.8,14.9,12.7,17.7,12.7c2.8,0,11.4-4.9,17.7-12.7c4.2-5.2,7.2-11.7,7.2-18.6
			c0-4-0.2-24.5-0.2-24.5s0-0.3-0.2-0.4c-4.7-2.1-14.6-3.9-24.5-3.9c-9.9,0-19.8,1.9-24.5,3.9c-0.3,0.2-0.2,0.4-0.2,0.4
			s-0.2,20.5-0.2,24.5"/>
		<g>
			<path class="st0" d="M-444.5,1063.4c0-7.6,0-9-0.1-10.5c-0.1-1.7-0.5-2.4-2.1-2.8c-0.4-0.1-1.3-0.1-1.7-0.1
				c-0.2,0-0.4-0.1-0.4-0.3c0-0.3,0.2-0.4,0.8-0.4c2.2,0,5.2,0.2,5.5,0.2c0.5,0,4.2-0.2,5.7-0.2c3.1,0,6.3,0.3,8.9,2.1
				c1.2,0.9,3.3,3.3,3.3,6.6c0,3.6-1.5,7.2-5.9,11.3c4,5.1,7.3,9.4,10.1,12.5c2.6,2.8,4.7,3.3,5.9,3.5c0.9,0.2,1.6,0.2,1.9,0.2
				c0.2,0,0.4,0.2,0.4,0.3c0,0.3-0.3,0.4-1.2,0.4h-3.3c-2.7,0-4-0.2-5.2-0.9c-2.1-1.1-3.8-3.5-6.6-7.1c-2.1-2.7-4.3-6-5.3-7.2
				c-0.2-0.2-0.3-0.3-0.6-0.3l-6-0.1c-0.2,0-0.3,0.2-0.3,0.4v1.2c0,4.7,0,8.5,0.2,10.6c0.2,1.4,0.4,2.5,1.9,2.7
				c0.7,0.1,1.7,0.2,2.2,0.2c0.3,0,0.4,0.2,0.4,0.3c0,0.2-0.2,0.4-0.8,0.4c-2.7,0-5.7-0.2-6-0.2c0,0-3.1,0.2-4.6,0.2
				c-0.5,0-0.8-0.1-0.8-0.4c0-0.2,0.1-0.3,0.4-0.3c0.4,0,1-0.1,1.5-0.2c1-0.2,1.2-1.3,1.4-2.7c0.2-2.1,0.2-5.9,0.2-10.6
				L-444.5,1063.4L-444.5,1063.4z M-440.8,1067.6c0,0.2,0.1,0.4,0.3,0.6c0.7,0.4,3,0.8,5.1,0.8c1.2,0,2.5-0.2,3.7-0.9
				c1.7-1.2,3-3.8,3-7.5c0-6.1-3.2-9.7-8.5-9.7c-1.5,0-2.8,0.2-3.3,0.3c-0.1,0-0.3,0.2-0.3,0.4V1067.6L-440.8,1067.6z"/>
			<path class="st0" d="M-406.6,1072c0,4.7,0,8.5,0.2,10.6c0.2,1.4,0.4,2.5,1.9,2.7c0.7,0.1,1.7,0.2,2.2,0.2c0.3,0,0.4,0.2,0.4,0.3
				c0,0.2-0.2,0.4-0.8,0.4c-2.7,0-5.7-0.2-6-0.2c-0.2,0-3.3,0.2-4.8,0.2c-0.5,0-0.8-0.1-0.8-0.4c0-0.2,0.1-0.3,0.4-0.3
				c0.4,0,1-0.1,1.5-0.2c1-0.2,1.2-1.3,1.4-2.7c0.3-2.1,0.3-5.9,0.3-10.6v-8.6c0-7.6,0-9-0.1-10.5c-0.1-1.7-0.6-2.5-1.7-2.7
				c-0.4-0.2-1.1-0.2-1.4-0.2c-0.2,0-0.4-0.1-0.4-0.3c0-0.3,0.2-0.4,0.8-0.4c1.6,0,4.7,0.2,4.9,0.2c0.2,0,3.3-0.2,4.8-0.2
				c0.5,0,0.8,0.1,0.8,0.4c-0.1,0.2-0.3,0.3-0.5,0.3c-0.3,0-0.6,0-1.2,0.2c-1.3,0.2-1.7,1-1.8,2.8c-0.1,1.5-0.1,2.8-0.1,10.4V1072
				L-406.6,1072z"/>
			<path class="st0" d="M-394.8,1081.5c-4.7-4.2-5.9-9.7-5.9-14.4c0-3.3,1.1-9,5.4-13.3c2.9-2.9,7.3-5.2,14.8-5.2
				c1.9,0,4.7,0.2,7.1,0.6c1.9,0.3,3.4,0.6,5,0.7c0.5,0,0.6,0.2,0.6,0.5c0,0.4-0.2,1-0.2,2.7c-0.1,1.6-0.1,4.3-0.2,5
				c-0.1,0.7-0.2,1-0.4,1c-0.3,0-0.4-0.3-0.4-1c0-1.9-0.8-3.9-2.1-5c-1.6-1.4-5.4-2.7-9.6-2.7c-6.5,0-9.5,1.9-11.2,3.5
				c-3.6,3.4-4.4,7.8-4.4,12.7c0,9.3,7.1,17.8,17.5,17.8c3.7,0,6.5-0.4,8.5-2.4c1-1,1.7-3.2,1.8-4.1c0.1-0.5,0.2-0.7,0.5-0.7
				c0.2,0,0.3,0.3,0.3,0.7c0,0.3-0.6,4.6-1,6.2c-0.3,0.9-0.4,1-1.3,1.4c-1.9,0.8-5.6,1.1-8.8,1.1
				C-386.1,1086.8-391,1085-394.8,1081.5z"/>
			<path class="st0" d="M-360.6,1063.4c0-7.6,0-9-0.1-10.5c-0.1-1.7-0.5-2.4-2.1-2.8c-0.4-0.1-1.2-0.1-1.6-0.1
				c-0.2,0-0.4-0.1-0.4-0.3c0-0.3,0.2-0.4,0.8-0.4c1.1,0,2.4,0,3.5,0l2,0.1c0.3,0,10,0,11.1,0c0.9,0,1.7-0.2,2.1-0.2
				c0.2,0,0.4-0.2,0.7-0.2c0.2,0,0.2,0.2,0.2,0.4c0,0.3-0.2,0.9-0.4,2.3c0,0.5-0.2,2.6-0.2,3.2c0,0.2-0.2,0.5-0.3,0.5
				c-0.3,0-0.4-0.2-0.4-0.6c0-0.3,0-1.2-0.3-1.7c-0.3-0.8-0.8-1.4-3.5-1.7c-0.8-0.1-6.2-0.2-6.7-0.2c-0.2,0-0.3,0.2-0.3,0.5v13.4
				c0,0.3,0,0.5,0.3,0.5c0.6,0,6.6,0,7.7-0.1c1.2-0.1,1.9-0.2,2.3-0.7c0.3-0.4,0.5-0.6,0.7-0.6s0.2,0.1,0.2,0.4
				c0,0.3-0.2,1.1-0.4,2.7c-0.1,1-0.2,2.8-0.2,3.1c0,0.4,0,0.9-0.3,0.9c-0.2,0-0.3-0.2-0.3-0.4c0-0.5,0-1-0.2-1.6
				c-0.2-0.7-0.6-1.5-2.5-1.7c-1.3-0.2-6.2-0.2-6.9-0.2c-0.2,0-0.3,0.2-0.3,0.3v4.3c0,1.7,0,7.3,0,8.3c0.2,3.3,0.9,4,5.6,4
				c1.3,0,3.4,0,4.7-0.5s1.9-1.5,2.2-3.5c0.1-0.5,0.2-0.7,0.4-0.7c0.3,0,0.3,0.4,0.3,0.7c0,0.4-0.4,3.7-0.6,4.7
				c-0.3,1.3-0.7,1.3-2.6,1.3c-3.7,0-6.3-0.1-8.2-0.2s-3.1-0.2-3.8-0.2c-0.1,0-0.9,0-1.9,0s-2.1,0.1-2.8,0.1c-0.5,0-0.8-0.1-0.8-0.4
				c0-0.2,0.1-0.3,0.4-0.3c0.4,0,1-0.1,1.5-0.2c1-0.2,1.2-1.3,1.4-2.7c0.2-2.1,0.2-5.9,0.2-10.6v-8.5h-0.1v0.1H-360.6z"/>
		</g>
	</g>
</g>
</svg>
